<?xml version="1.0" standalone="no"?>
<!DOCTYPE svg PUBLIC "-//W3C//DTD SVG 20010904//EN"
 "http://www.w3.org/TR/2001/REC-SVG-20010904/DTD/svg10.dtd">
<svg version="1.0" xmlns="http://www.w3.org/2000/svg"
 width="200.000000pt" height="200.000000pt" viewBox="0 0 200.000000 200.000000"
 preserveAspectRatio="xMidYMid meet">
<metadata>
Created by potrace 1.11, written by Peter Selinger 2001-2013
</metadata>
<g transform="translate(0.000000,200.000000) scale(0.100000,-0.100000)"
fill="#000000" stroke="none">
<path d="M1647 1602 c-61 -20 -129 -79 -159 -140 -19 -38 -23 -63 -23 -136 l0
-89 -87 -64 -87 -64 -28 18 c-15 10 -35 24 -43 30 -8 7 -121 91 -250 187 -251
188 -285 205 -373 192 -52 -8 -147 -64 -147 -87 0 -3 133 -105 295 -225 162
-120 295 -222 295 -225 0 -6 -35 -33 -375 -284 -110 -81 -204 -152 -209 -156
-14 -13 20 -45 77 -74 57 -28 120 -32 177 -11 26 9 428 299 567 408 7 6 41
-13 101 -57 l90 -66 -1 -87 c-2 -100 17 -154 74 -210 58 -57 104 -76 189 -75
91 0 135 18 194 77 100 100 101 272 1 372 -55 55 -103 76 -183 80 -50 3 -75
-2 -119 -21 -30 -14 -59 -25 -63 -25 -4 0 -46 29 -93 64 l-86 64 54 41 c30 23
70 52 90 65 l35 24 61 -25 c187 -76 377 46 377 243 0 185 -176 313 -351 256z
m150 -168 c28 -17 43 -52 43 -96 0 -43 -56 -98 -101 -98 -52 0 -96 32 -109 79
-28 103 76 175 167 115z m-561 -405 c17 -19 17 -23 3 -47 -26 -47 -85 -37 -94
15 -4 24 23 53 50 53 12 0 30 -9 41 -21z m577 -309 c75 -84 -14 -209 -120
-169 -25 10 -42 26 -56 52 -58 112 91 212 176 117z"/>
<path d="M0 999 l0 -541 26 16 c14 10 118 80 232 157 114 77 282 191 373 252
92 62 165 115 162 119 -2 4 -72 53 -156 109 -84 56 -261 176 -394 266 l-243
164 0 -542z"/>
</g>
</svg>
