<svg xmlns="http://www.w3.org/2000/svg" xmlns:xlink="http://www.w3.org/1999/xlink" version="1.1" x="0px" y="0px" style="fill: #bc2a2a;" viewBox="0 0 100 100" enable-background="new 0 0 100 100" xml:space="preserve"><path d="M18.062,18.062c-17.639,17.639-17.639,46.237,0,63.875c17.638,17.638,46.237,17.639,63.875,0  c17.638-17.638,17.638-46.238,0-63.875C64.299,0.423,35.7,0.424,18.062,18.062z M77.313,77.313  c-15.061,15.061-39.564,15.06-54.625-0.001s-15.061-39.563,0-54.624s39.564-15.061,54.625,0S92.373,62.252,77.313,77.313z   M33.291,28.664l-4.626,4.625L45.375,50l-16.71,16.71l4.625,4.624l16.709-16.709l16.71,16.709l4.624-4.624L54.625,50.001  l16.71-16.709l-4.626-4.625L50.001,45.375L33.291,28.664z"></path></svg>