<svg xmlns="http://www.w3.org/2000/svg" viewBox="0 0 122.55 75.56"><defs><style>.cls-1{fill:#ffffff;}</style></defs><title>cut</title><g id="Layer_2" data-name="Layer 2"><g id="Layer_1-2" data-name="Layer 1"><polygon class="cls-1" points="122.55 70.82 122.55 4.73 73.55 37.78 122.55 70.82"/><path class="cls-1" d="M95,10.43a13.93,13.93,0,0,0-19.5-2.9L43.6,31.33,33.7,24a3.4,3.4,0,0,1-1.3-3.5,16.63,16.63,0,0,0,.1-7.7,16.55,16.55,0,1,0-7.6,17.6,3.49,3.49,0,0,1,3.8.2l9.5,7.1-9.5,7.1a3.49,3.49,0,0,1-3.8.2,16.41,16.41,0,1,0,7.8,16.7,16.59,16.59,0,0,0-.3-6.7,3.4,3.4,0,0,1,1.3-3.5l9.9-7.3L75.5,68A13.91,13.91,0,0,0,95,65.13L58.2,37.73ZM16.4,23.23a6.8,6.8,0,1,1,6.8-6.8A6.68,6.68,0,0,1,16.4,23.23Zm0,42.8a6.8,6.8,0,1,1,6.8-6.8A6.81,6.81,0,0,1,16.4,66Zm32.9-24.9a3.3,3.3,0,1,1,3.3-3.3A3.33,3.33,0,0,1,49.3,41.13Z"/></g></g></svg>