<svg xmlns="http://www.w3.org/2000/svg" xmlns:xlink="http://www.w3.org/1999/xlink" version="1.1" x="0px" y="0px" viewBox="0 0 100 100" style="enable-background:new 0 0 100 100;" xml:space="preserve"><g><g><path d="M50,89.5c-21.8,0-39.5-17.7-39.5-39.5S28.2,10.5,50,10.5S89.5,28.2,89.5,50S71.8,89.5,50,89.5z M50,17.5    c-17.9,0-32.5,14.6-32.5,32.5c0,17.9,14.6,32.5,32.5,32.5S82.5,67.9,82.5,50C82.5,32.1,67.9,17.5,50,17.5z"></path></g><g><path d="M42,66.8c-0.8,0-1.5-0.2-2.2-0.6c-1.4-0.8-2.3-2.3-2.3-3.9V37.7c0-1.6,0.9-3.1,2.3-3.9    c1.4-0.8,3.1-0.8,4.5,0l21,12.3c1.4,0.8,2.2,2.3,2.2,3.9c0,1.6-0.9,3.1-2.2,3.9l-21,12.3C43.6,66.6,42.8,66.8,42,66.8z M44.5,42.1    v15.8L58.1,50L44.5,42.1z"></path></g></g></svg>