<svg xmlns="http://www.w3.org/2000/svg" xmlns:xlink="http://www.w3.org/1999/xlink" version="1.1" x="0px" y="0px" viewBox="0 0 100 100" style="enable-background:new 0 0 100 100; fill: #bc2a2a" xml:space="preserve"><g><path d="M66,60.3c2.7-3.9,4.4-8.6,4.4-13.7c0-13-10.6-23.7-23.7-23.7S23,33.6,23,46.7c0,13,10.6,23.7,23.7,23.7   c5.1,0,9.8-1.6,13.7-4.4l7.9,7.9C69,74.6,70,75,71,75s2-0.4,2.8-1.2c1.6-1.6,1.6-4.1,0-5.7L66,60.3z M31,46.7C31,38,38,31,46.7,31   s15.7,7,15.7,15.7c0,8.6-7,15.7-15.7,15.7S31,55.3,31,46.7z"></path><path d="M50,5C25.1,5,5,25.1,5,50c0,24.9,20.1,45,45,45c24.9,0,45-20.1,45-45C95,25.1,74.9,5,50,5z M50,87c-20.4,0-37-16.6-37-37   c0-20.4,16.6-37,37-37s37,16.6,37,37C87,70.4,70.4,87,50,87z"></path></g></svg>