<svg xmlns="http://www.w3.org/2000/svg" xmlns:xlink="http://www.w3.org/1999/xlink" version="1.1" x="0px" y="0px" viewBox="0 0 100 100" style="enable-background:new 0 0 100 100;" xml:space="preserve"><g><path d="M24.3,86.5c0.2,3.5,3.3,6.2,6.9,6.2h37.6c3.7,0,6.7-2.7,6.9-6.2l4.1-64.4H20.2L24.3,86.5z"></path><path d="M81.9,12.2H64.3l-0.6-3.4C63.6,8,62.9,7.3,62,7.3H38.3c-0.9,0-1.6,0.7-1.8,1.6L36,12.2H18.1c-1.2,0-2.2,1-2.2,2.2V17   c0,1.2,1,2.2,2.2,2.2h63.8c1.2,0,2.2-1,2.2-2.2v-2.6C84.1,13.2,83.1,12.2,81.9,12.2z"></path></g></svg>