<svg xmlns="http://www.w3.org/2000/svg" viewBox="0 0 63.51 63.48"><defs><style>.cls-1{fill:#bc2a2a;stroke:#bc2a2a;stroke-miterlimit:10;stroke-width:3px;}</style></defs><title>zoom-in</title><g id="Layer_2" data-name="Layer 2"><g id="Layer_1-2" data-name="Layer 1"><path class="cls-1" d="M26.54,1.5A25,25,0,1,0,43.47,44.86L60,61.36,61.39,60,44.9,43.43A25,25,0,0,0,26.54,1.5Zm0,48a23,23,0,1,1,23-23A23,23,0,0,1,26.54,49.5Z"/><polygon class="cls-1" points="27.54 18 25.54 18 25.54 25.5 18.04 25.5 18.04 27.5 25.54 27.5 25.54 35 27.54 35 27.54 27.5 35.04 27.5 35.04 25.5 27.54 25.5 27.54 18"/></g></g></svg>