<svg xmlns="http://www.w3.org/2000/svg" viewBox="0 0 937.2 719.36"><defs><style>.cls-1{fill:#fff;}.cls-2{fill:#bc2a2a;}.cls-3{fill:#005397;}</style></defs><title>logo-parlatube_3</title><g id="Layer_2" data-name="Layer 2"><g id="Layer_1-2" data-name="Layer 1"><polygon class="cls-1" points="0 0 846.55 0 846.55 242.33 0 325.73 0 0"/><path class="cls-2" d="M0,597.74V431.62l846.55-83.4V597.74H729.3l-75,121.63s-75.08-121.82-75-121.63Z"/><polygon class="cls-3" points="846.22 317.8 771.82 324.54 768.4 286.87 846.22 279.82 846.22 317.8"/><rect class="cls-3" x="503.28" y="306.22" width="104.76" height="37.83" transform="translate(-27.06 51.44) rotate(-5.17)"/><rect class="cls-3" x="636.59" y="294.14" width="104.76" height="37.83" transform="translate(-25.43 63.42) rotate(-5.17)"/><rect class="cls-3" x="369.98" y="318.29" width="104.76" height="37.84" transform="matrix(1, -0.09, 0.09, 1, -28.72, 39.51)"/><rect class="cls-3" x="103.38" y="342.45" width="104.76" height="37.83" transform="translate(-31.96 15.52) rotate(-5.17)"/><rect class="cls-3" x="236.68" y="330.37" width="104.76" height="37.84" transform="translate(-30.35 27.52) rotate(-5.18)"/><polygon class="cls-3" points="72.91 349.88 76.32 387.55 0.21 394.45 0.22 356.46 72.91 349.88"/><path class="cls-3" d="M807.32,246.4l32.67-3,3.44-6.65,24,4.43a6.75,6.75,0,0,1,5.31,5.09A32.33,32.33,0,0,0,878,258.6a32.65,32.65,0,1,0-.72-36.57,6.62,6.62,0,0,1-6.82,2.83l-23.14-4.32,10.79-20.92a6.62,6.62,0,0,1,6.42-3.65,32.49,32.49,0,1,0-28.84-24.86,33.77,33.77,0,0,0,6.89,13.55,6.74,6.74,0,0,1,.76,7.32l-11.2,21.64-77.55-14.36a27.85,27.85,0,0,0-32.22,22.18l89.37,16.52Zm91.3-18.94a13.59,13.59,0,1,1-6.23,18.18A13.61,13.61,0,0,1,898.62,227.46Zm-37.26-76.13a13.59,13.59,0,1,1-6.23,18.18A13.61,13.61,0,0,1,861.35,151.33Zm-36.77,73.13A6.45,6.45,0,1,1,830.25,236a6.44,6.44,0,0,1-8.63-3A6.59,6.59,0,0,1,824.58,224.46Z"/><polygon class="cls-3" points="90.22 115.87 90.22 210.47 178.07 163.17 90.22 115.87"/></g></g></svg>